<svg width="225" height="44" viewBox="0 0 260 44" xmlns="http://www.w3.org/2000/svg">
  <!-- Фон -->
  <rect x="0" y="0" width="260" height="44" rx="12" ry="12" fill="#0A66C2"/>

  <!-- Иконка LinkedIn: центрирована -->
  <g transform="translate(76,11) scale(0.75)" fill="#fff">
    <path d="M2 2h6v6H2zM2 10h6v20H2zM12 10h6v3h.1c.8-1.5 3-3 6.2-3C29 10 32 12 32 17v13h-6V18.7c0-2-1-3.7-3.3-3.7-1.8 0-2.7 1.2-3.2 2.4-.2.4-.2 1-.2 1.6V30h-6V10z"/>
  </g>

  <!-- Текст: нормальный кернинг -->
  <text x="112" y="28" font-family="Inter, Segoe UI, Roboto, Arial, sans-serif"
        font-weight="600" font-size="16" fill="#fff">LinkedIn</text>
</svg>

