<!-- /assets/socials.svg -->
<svg width="720" height="64" viewBox="0 0 720 64" xmlns="http://www.w3.org/2000/svg" aria-labelledby="title">
  <title>Social buttons</title>
  <style>
    .btn { rx:10; ry:10; }
    .label { font: 600 14px "Inter", "Segoe UI", Roboto, Arial, sans-serif; fill:#fff; }
    .link:hover { opacity: .9; }
  </style>

  <!-- X -->
  <a class="link" href="https://x.com/ChemObyazan?s=09" target="_blank">
    <rect class="btn" x="10" y="10" width="160" height="44" fill="#000"/>
    <text class="label" x="58" y="37">X (Twitter)</text>
    <g transform="translate(26,22) scale(0.8)" fill="#fff">
      <path d="M15.3 0L9.4 7.0 0 0h5.9l6.0 4.8L16.6 0h5.9L13 8.8 22.5 16h-5.9l-6.9-5.5L2.9 16H0l8.4-10.6L0 0h5.9z"/>
    </g>
  </a>


  <!-- LinkedIn -->
  <a class="link" href="https://www.linkedin.com/in/ruslan-beskorovayniy-9228a7384/" target="_blank">
    <rect class="btn" x="370" y="10" width="160" height="44" fill="#0A66C2"/>
    <text class="label" x="418" y="37">LinkedIn</text>
    <path fill="#fff" transform="translate(386,22) scale(0.8)"
      d="M2 2h6v6H2zM2 10h6v20H2zM12 10h6v3h.1c.8-1.5 3-3 6.2-3C29 10 32 12 32 17v13h-6V18.7c0-2-1-3.7-3.3-3.7-1.8 0-2.7 1.2-3.2 2.4-.2.4-.2 1-.2 1.6V30h-6V10z"/>
  </a>

  <!-- Facebook -->
  <a class="link" href="https://www.facebook.com/share/1GEt8oeTia/" target="_blank">
    <rect class="btn" x="550" y="10" width="160" height="44" fill="#1877F2"/>
    <text class="label" x="598" y="37">Facebook</text>
    <path fill="#fff" transform="translate(566,18) scale(1)"
      d="M22 0c12.1 0 22 9.9 22 22S34.1 44 22 44 0 34.1 0 22 9.9 0 22 0zm3.8 22h-3v11h-4.6V22h-2.2v-3.9h2.2v-2.5c0-3 1.3-4.8 5.1-4.8h3.1v3.9h-1.9c-1.4 0-1.5.5-1.5 1.4v2h3.4L25.8 22z"/>
  </a>
</svg>
